<?xml version="1.0" standalone="no"?>
<!DOCTYPE svg PUBLIC "-//W3C//DTD SVG 20010904//EN"
 "http://www.w3.org/TR/2001/REC-SVG-20010904/DTD/svg10.dtd">
<svg version="1.0" xmlns="http://www.w3.org/2000/svg"
 width="1000.000000pt" height="207.000000pt" viewBox="0 0 1000.000000 207.000000"
 preserveAspectRatio="xMidYMid meet">
<metadata>
Created by potrace 1.13, written by Peter Selinger 2001-2015
</metadata>
<g transform="translate(0.000000,207.000000) scale(0.100000,-0.100000)"
fill="#000000" stroke="none">
<path d="M921 2055 c-87 -14 -177 -40 -198 -57 -40 -33 11 -51 152 -54 66 -2
153 -6 192 -9 40 -4 75 -7 78 -6 2 0 19 -5 37 -10 18 -6 41 -12 51 -14 35 -8
82 -41 95 -67 16 -33 -5 -100 -51 -168 -47 -68 -184 -198 -322 -305 -116 -90
-175 -145 -175 -165 0 -32 105 -5 219 57 226 123 448 319 515 455 59 117 57
195 -6 255 -42 39 -78 57 -158 79 -84 22 -314 27 -429 9z"/>
<path d="M1570 1373 c-160 -25 -276 -116 -272 -215 4 -87 49 -160 251 -402
146 -175 181 -230 181 -283 0 -77 -55 -88 -510 -108 -157 -7 -200 -13 -207
-31 -16 -43 75 -70 307 -89 369 -31 574 16 641 148 38 73 10 170 -82 288 -24
30 -48 59 -54 65 -5 6 -28 33 -50 60 -22 26 -68 80 -102 120 -90 102 -132 176
-128 222 6 68 62 88 268 97 289 13 297 14 297 47 0 26 -53 47 -175 68 -91 16
-299 23 -365 13z"/>
<path d="M510 1080 c-188 -27 -286 -64 -259 -96 17 -20 58 -25 228 -26 241 -2
381 -27 438 -80 28 -26 38 -87 22 -135 -47 -145 -276 -354 -499 -455 -62 -28
-135 -32 -136 -8 -1 41 51 154 163 349 46 80 83 150 84 155 0 6 2 19 4 28 8
43 -51 33 -95 -16 -61 -67 -263 -364 -338 -497 -63 -113 -114 -224 -116 -252
-1 -30 1 -32 34 -32 172 -2 624 204 840 383 237 196 356 432 278 550 -37 55
-135 106 -244 126 -136 25 -258 27 -404 6z"/>
<path d="M2666 1065 c-88 -31 -143 -122 -133 -220 9 -88 26 -105 291 -289 73
-51 86 -64 86 -88 0 -16 -7 -31 -17 -36 -10 -5 -101 -10 -202 -10 -103 -1
-189 -6 -194 -11 -14 -14 -23 -80 -17 -121 l5 -36 200 2 c118 0 217 6 241 12
95 27 155 105 160 207 2 44 -3 71 -17 100 -22 46 -24 47 -179 157 -187 133
-191 137 -180 159 10 18 23 19 196 19 183 0 185 0 209 25 23 22 27 39 27 105
0 11 0 25 -1 30 -2 16 -427 12 -475 -5z"/>
<path d="M3610 1073 c-238 -38 -397 -232 -406 -494 -7 -192 66 -300 231 -344
62 -16 171 -18 240 -3 223 47 376 255 376 511 0 162 -73 273 -206 313 -49 15
-186 25 -235 17z m125 -144 c56 -10 94 -38 118 -85 23 -45 17 -197 -12 -287
-43 -132 -155 -208 -287 -194 -149 15 -199 111 -160 308 41 204 158 292 341
258z"/>
<path d="M4251 1058 c-4 -13 -11 -45 -15 -71 -4 -27 -10 -59 -12 -70 -5 -24
-32 -174 -40 -222 -3 -16 -7 -37 -9 -45 -4 -15 -9 -42 -21 -115 -3 -22 -7 -42
-9 -45 -2 -3 -6 -26 -10 -50 -4 -25 -13 -74 -20 -110 -7 -36 -12 -67 -9 -69 8
-8 574 -6 574 1 0 5 0 10 1 13 1 2 5 23 10 46 16 68 12 69 -197 69 -101 0
-184 1 -184 3 0 2 16 88 35 192 20 105 38 204 41 220 2 17 14 79 25 139 11 59
18 115 15 122 -4 10 -27 14 -86 14 -74 0 -81 -2 -89 -22z"/>
<path d="M4939 1078 c0 -2 -2 -14 -5 -28 -11 -65 -45 -248 -49 -270 -3 -14 -8
-41 -11 -60 -4 -19 -8 -44 -11 -55 -2 -11 -6 -36 -9 -55 -3 -19 -19 -105 -34
-190 -17 -93 -25 -157 -19 -161 13 -8 151 -5 165 4 6 3 15 28 18 54 4 27 9 55
11 63 7 36 35 188 40 220 3 19 12 69 20 110 8 41 17 93 21 115 3 22 9 56 14
75 5 19 12 58 16 85 3 28 8 54 11 58 3 4 -1 14 -7 22 -9 11 -34 15 -91 15 -44
0 -79 -1 -80 -2z"/>
<path d="M5267 1074 c-15 -16 -7 -84 13 -104 24 -24 7 -22 225 -25 210 -2 241
-6 277 -40 58 -53 62 -186 11 -327 -24 -67 -80 -138 -132 -165 -38 -20 -58
-23 -154 -23 l-110 0 6 43 c4 23 9 53 12 67 5 25 40 219 50 275 3 17 7 40 10
52 5 20 1 22 -37 25 -81 6 -137 -3 -143 -21 -12 -38 -105 -563 -101 -570 7
-11 426 -4 478 8 175 41 287 160 338 360 54 211 1 364 -147 422 -54 22 -75 24
-323 27 -146 2 -269 0 -273 -4z"/>
<path d="M6178 1066 c-3 -9 -2 -744 1 -798 1 -13 10 -16 49 -15 26 1 57 8 69
15 12 7 63 85 114 175 135 240 140 249 144 245 3 -3 26 -104 41 -183 2 -11 6
-31 9 -45 3 -14 7 -36 10 -50 10 -54 17 -87 26 -123 9 -36 12 -37 47 -35 51 2
76 15 94 46 9 15 62 131 117 257 56 127 111 250 123 275 55 120 88 200 88 213
0 20 -20 33 -49 33 -22 -1 -32 -18 -93 -156 -37 -85 -77 -174 -88 -197 -11
-24 -20 -45 -20 -48 0 -2 -14 -35 -31 -72 -17 -38 -40 -88 -51 -113 -45 -105
-52 -120 -58 -120 -4 0 -24 82 -45 183 -39 185 -56 236 -78 238 -6 1 -25 2
-40 3 -16 2 -34 -2 -41 -9 -6 -7 -63 -102 -126 -213 -63 -110 -117 -199 -120
-197 -3 2 -5 154 -4 337 2 184 -1 340 -5 346 -10 17 -79 23 -83 8z"/>
<path d="M7449 1061 c-127 -32 -222 -116 -288 -256 -47 -98 -62 -158 -63 -251
0 -153 71 -267 197 -314 89 -33 215 -26 305 16 82 39 149 99 194 172 117 193
123 422 13 548 -29 34 -104 79 -147 89 -64 15 -144 13 -211 -4z m192 -82 c131
-40 186 -184 138 -367 -48 -187 -171 -299 -338 -307 -104 -6 -194 45 -233 132
-64 144 16 396 156 492 82 56 191 75 277 50z"/>
<path d="M8094 1068 c-3 -4 -9 -31 -14 -60 -5 -29 -18 -100 -29 -158 -10 -58
-22 -121 -25 -141 -3 -20 -8 -42 -10 -50 -3 -8 -8 -32 -11 -54 -3 -22 -15 -87
-26 -145 -11 -58 -22 -120 -25 -139 -3 -18 -7 -42 -9 -52 -3 -16 3 -19 41 -19
24 0 44 3 45 8 1 8 1 11 18 92 6 30 13 73 17 95 3 22 7 47 9 55 3 8 7 33 11
55 3 22 8 42 11 45 2 3 40 5 83 5 l79 0 49 -85 c173 -300 153 -271 192 -268
26 2 36 8 38 23 1 11 -37 88 -88 174 -49 85 -89 155 -88 156 2 0 30 9 62 19
80 24 125 56 162 113 39 59 52 103 48 165 -5 88 -49 135 -149 159 -56 13 -384
19 -391 7z m387 -98 c64 -33 82 -81 54 -146 -42 -101 -118 -135 -315 -139
-101 -2 -111 1 -106 29 2 11 14 75 26 141 12 66 23 123 26 126 7 12 290 2 315
-11z"/>
<path d="M8851 1026 c-6 -28 -13 -68 -17 -90 -7 -49 -12 -73 -18 -94 -3 -9 -7
-33 -10 -53 -3 -19 -17 -93 -30 -165 -26 -132 -54 -285 -62 -340 -5 -32 -5
-32 38 -30 43 1 43 1 55 48 6 26 14 66 17 90 4 24 14 83 24 132 15 80 19 88
32 74 8 -8 35 -37 60 -64 213 -232 264 -284 280 -284 53 0 65 32 28 73 -13 14
-56 61 -97 105 -40 45 -102 112 -137 149 -35 37 -63 73 -63 78 0 6 54 54 119
109 65 54 127 105 137 115 10 9 50 43 88 75 78 66 88 77 79 100 -6 16 -21 20
-58 16 -10 -1 -108 -79 -217 -173 -110 -95 -203 -173 -208 -175 -4 -1 0 39 9
90 50 273 50 255 -8 262 -30 3 -31 2 -41 -48z"/>
<path d="M9602 1064 c-78 -20 -122 -97 -114 -197 4 -50 30 -84 173 -224 133
-129 171 -179 165 -214 -14 -80 -37 -89 -239 -89 -178 0 -183 -1 -182 -55 l0
-30 155 -3 c208 -4 252 2 296 40 63 55 76 164 29 242 -13 23 -83 99 -154 169
-72 71 -138 141 -146 156 -18 37 -7 78 29 105 25 19 43 21 191 22 91 1 172 4
180 8 10 3 15 19 15 43 l0 38 -176 0 c-103 0 -195 -4 -222 -11z"/>
</g>
</svg>
